<mxfile host="Electron" modified="2023-04-05T13:45:53.654Z" agent="Mozilla/5.0 (Windows NT 10.0; Win64; x64) AppleWebKit/537.36 (KHTML, like Gecko) draw.io/21.1.2 Chrome/106.0.5249.199 Electron/21.4.3 Safari/537.36" etag="J5ePLK4GVBUCpG5pFAyB" version="21.1.2" type="device">
  <diagram name="Page-1" id="JIGmickcdqsWm5VRgomY">
    <mxGraphModel dx="1927" dy="2013" grid="1" gridSize="10" guides="1" tooltips="1" connect="1" arrows="1" fold="1" page="1" pageScale="1" pageWidth="827" pageHeight="1169" math="0" shadow="0">
      <root>
        <mxCell id="0" />
        <mxCell id="1" parent="0" />
        <mxCell id="uwtrpF3eEHNYTBR3y_yJ-49" value="references" style="edgeStyle=orthogonalEdgeStyle;rounded=0;orthogonalLoop=1;jettySize=auto;html=1;exitX=0.5;exitY=0;exitDx=0;exitDy=0;labelPosition=right;verticalLabelPosition=top;align=left;verticalAlign=bottom;endArrow=none;endFill=0;startArrow=classic;startFill=1;" parent="1" source="uwtrpF3eEHNYTBR3y_yJ-30" target="uwtrpF3eEHNYTBR3y_yJ-42" edge="1">
          <mxGeometry relative="1" as="geometry" />
        </mxCell>
        <mxCell id="uwtrpF3eEHNYTBR3y_yJ-30" value="Transformations" style="swimlane;whiteSpace=wrap;html=1;" parent="1" vertex="1">
          <mxGeometry x="100" y="54" width="510" height="190" as="geometry" />
        </mxCell>
        <mxCell id="uwtrpF3eEHNYTBR3y_yJ-32" value="«interface»&lt;br&gt;&lt;b&gt;TableTransformation&lt;/b&gt;" style="html=1;" parent="uwtrpF3eEHNYTBR3y_yJ-30" vertex="1">
          <mxGeometry x="370" y="77" width="125" height="50" as="geometry" />
        </mxCell>
        <mxCell id="uwtrpF3eEHNYTBR3y_yJ-41" value="implements" style="edgeStyle=orthogonalEdgeStyle;rounded=0;orthogonalLoop=1;jettySize=auto;html=1;exitX=1.002;exitY=0.042;exitDx=0;exitDy=0;labelPosition=right;verticalLabelPosition=top;align=left;verticalAlign=bottom;exitPerimeter=0;spacing=4;" parent="uwtrpF3eEHNYTBR3y_yJ-30" source="uwtrpF3eEHNYTBR3y_yJ-34" target="uwtrpF3eEHNYTBR3y_yJ-32" edge="1">
          <mxGeometry relative="1" as="geometry">
            <Array as="points">
              <mxPoint x="340" y="57" />
              <mxPoint x="340" y="102" />
            </Array>
          </mxGeometry>
        </mxCell>
        <mxCell id="uwtrpF3eEHNYTBR3y_yJ-50" value="" style="edgeStyle=orthogonalEdgeStyle;rounded=0;orthogonalLoop=1;jettySize=auto;html=1;entryX=0.5;entryY=0;entryDx=0;entryDy=0;" parent="uwtrpF3eEHNYTBR3y_yJ-30" source="uwtrpF3eEHNYTBR3y_yJ-33" target="uwtrpF3eEHNYTBR3y_yJ-37" edge="1">
          <mxGeometry relative="1" as="geometry" />
        </mxCell>
        <mxCell id="uwtrpF3eEHNYTBR3y_yJ-33" value="FilterTransformation" style="swimlane;fontStyle=1;childLayout=stackLayout;horizontal=1;startSize=26;fillColor=none;horizontalStack=0;resizeParent=1;resizeParentMax=0;resizeLast=0;collapsible=1;marginBottom=0;" parent="uwtrpF3eEHNYTBR3y_yJ-30" vertex="1">
          <mxGeometry x="10" y="30" width="290" height="58" as="geometry" />
        </mxCell>
        <mxCell id="uwtrpF3eEHNYTBR3y_yJ-34" value="+ filter : FieldComparison = F(&quot;duration&quot;) &lt; 20" style="text;strokeColor=none;fillColor=none;align=left;verticalAlign=top;spacingLeft=4;spacingRight=4;overflow=hidden;rotatable=0;points=[[0,0.5],[1,0.5]];portConstraint=eastwest;" parent="uwtrpF3eEHNYTBR3y_yJ-33" vertex="1">
          <mxGeometry y="26" width="290" height="32" as="geometry" />
        </mxCell>
        <mxCell id="uwtrpF3eEHNYTBR3y_yJ-51" value="implements" style="edgeStyle=orthogonalEdgeStyle;rounded=0;orthogonalLoop=1;jettySize=auto;html=1;entryX=0;entryY=0.5;entryDx=0;entryDy=0;labelPosition=right;verticalLabelPosition=bottom;align=left;verticalAlign=top;spacing=5;" parent="uwtrpF3eEHNYTBR3y_yJ-30" source="uwtrpF3eEHNYTBR3y_yJ-37" target="uwtrpF3eEHNYTBR3y_yJ-32" edge="1">
          <mxGeometry relative="1" as="geometry">
            <Array as="points">
              <mxPoint x="340" y="153" />
              <mxPoint x="340" y="102" />
            </Array>
          </mxGeometry>
        </mxCell>
        <mxCell id="uwtrpF3eEHNYTBR3y_yJ-37" value="SelectTransformation" style="swimlane;fontStyle=1;childLayout=stackLayout;horizontal=1;startSize=26;fillColor=none;horizontalStack=0;resizeParent=1;resizeParentMax=0;resizeLast=0;collapsible=1;marginBottom=0;" parent="uwtrpF3eEHNYTBR3y_yJ-30" vertex="1">
          <mxGeometry x="10" y="127" width="290" height="52" as="geometry" />
        </mxCell>
        <mxCell id="uwtrpF3eEHNYTBR3y_yJ-38" value="+ selectColumns : NamedFieldComparison = F(&quot;id&quot;)" style="text;strokeColor=none;fillColor=none;align=left;verticalAlign=top;spacingLeft=4;spacingRight=4;overflow=hidden;rotatable=0;points=[[0,0.5],[1,0.5]];portConstraint=eastwest;" parent="uwtrpF3eEHNYTBR3y_yJ-37" vertex="1">
          <mxGeometry y="26" width="290" height="26" as="geometry" />
        </mxCell>
        <mxCell id="uwtrpF3eEHNYTBR3y_yJ-9" value="«interface»&lt;br&gt;&lt;b&gt;DataSource&lt;/b&gt;" style="html=1;" parent="1" vertex="1">
          <mxGeometry x="-47.5" y="190" width="110" height="50" as="geometry" />
        </mxCell>
        <mxCell id="uwtrpF3eEHNYTBR3y_yJ-48" value="references" style="edgeStyle=orthogonalEdgeStyle;rounded=0;orthogonalLoop=1;jettySize=auto;html=1;exitX=0.5;exitY=0;exitDx=0;exitDy=0;labelPosition=left;verticalLabelPosition=top;align=right;verticalAlign=bottom;endArrow=none;endFill=0;startArrow=classic;startFill=1;" parent="1" source="uwtrpF3eEHNYTBR3y_yJ-16" target="uwtrpF3eEHNYTBR3y_yJ-42" edge="1">
          <mxGeometry relative="1" as="geometry" />
        </mxCell>
        <mxCell id="uwtrpF3eEHNYTBR3y_yJ-16" value="CassandraDataSource" style="swimlane;fontStyle=1;childLayout=stackLayout;horizontal=1;startSize=26;fillColor=none;horizontalStack=0;resizeParent=1;resizeParentMax=0;resizeLast=0;collapsible=1;marginBottom=0;" parent="1" vertex="1">
          <mxGeometry x="-75" y="54" width="165" height="78" as="geometry" />
        </mxCell>
        <mxCell id="uwtrpF3eEHNYTBR3y_yJ-17" value="+ keyspace : String = &quot;data&quot;" style="text;strokeColor=none;fillColor=none;align=left;verticalAlign=top;spacingLeft=4;spacingRight=4;overflow=hidden;rotatable=0;points=[[0,0.5],[1,0.5]];portConstraint=eastwest;" parent="uwtrpF3eEHNYTBR3y_yJ-16" vertex="1">
          <mxGeometry y="26" width="165" height="26" as="geometry" />
        </mxCell>
        <mxCell id="uwtrpF3eEHNYTBR3y_yJ-18" value="+ table :String = &quot;origination&quot;" style="text;strokeColor=none;fillColor=none;align=left;verticalAlign=top;spacingLeft=4;spacingRight=4;overflow=hidden;rotatable=0;points=[[0,0.5],[1,0.5]];portConstraint=eastwest;" parent="uwtrpF3eEHNYTBR3y_yJ-16" vertex="1">
          <mxGeometry y="52" width="165" height="26" as="geometry" />
        </mxCell>
        <mxCell id="uwtrpF3eEHNYTBR3y_yJ-10" value="implements" style="edgeStyle=orthogonalEdgeStyle;rounded=0;orthogonalLoop=1;jettySize=auto;html=1;labelPosition=right;verticalLabelPosition=middle;align=left;verticalAlign=middle;spacing=4;" parent="1" source="uwtrpF3eEHNYTBR3y_yJ-16" target="uwtrpF3eEHNYTBR3y_yJ-9" edge="1">
          <mxGeometry relative="1" as="geometry">
            <mxPoint x="-35" y="210" as="sourcePoint" />
          </mxGeometry>
        </mxCell>
        <mxCell id="uwtrpF3eEHNYTBR3y_yJ-42" value="Output Table" style="swimlane;fontStyle=1;childLayout=stackLayout;horizontal=1;startSize=26;fillColor=none;horizontalStack=0;resizeParent=1;resizeParentMax=0;resizeLast=0;collapsible=1;marginBottom=0;" parent="1" vertex="1">
          <mxGeometry x="70" y="-90" width="230" height="78" as="geometry" />
        </mxCell>
        <mxCell id="uwtrpF3eEHNYTBR3y_yJ-43" value="+ dataSource : DataSource" style="text;strokeColor=none;fillColor=none;align=left;verticalAlign=top;spacingLeft=4;spacingRight=4;overflow=hidden;rotatable=0;points=[[0,0.5],[1,0.5]];portConstraint=eastwest;" parent="uwtrpF3eEHNYTBR3y_yJ-42" vertex="1">
          <mxGeometry y="26" width="230" height="26" as="geometry" />
        </mxCell>
        <mxCell id="uwtrpF3eEHNYTBR3y_yJ-44" value="+ transformations : TableTransformation[]" style="text;strokeColor=none;fillColor=none;align=left;verticalAlign=top;spacingLeft=4;spacingRight=4;overflow=hidden;rotatable=0;points=[[0,0.5],[1,0.5]];portConstraint=eastwest;" parent="uwtrpF3eEHNYTBR3y_yJ-42" vertex="1">
          <mxGeometry y="52" width="230" height="26" as="geometry" />
        </mxCell>
      </root>
    </mxGraphModel>
  </diagram>
</mxfile>
